<svg version="1.1" id="Layer_1" xmlns="http://www.w3.org/2000/svg" xmlns:xlink="http://www.w3.org/1999/xlink" x="0px" y="0px"
	 width="100%" viewBox="0 0 96 96" enable-background="new 0 0 96 96" xml:space="preserve">
<path fill="#000000" opacity="1.000000" stroke="none" 
	d="
M62.000000,97.000000 
	C41.333332,97.000000 21.166666,97.000000 1.000000,97.000000 
	C1.000000,65.000000 1.000000,33.000000 1.000000,1.000000 
	C33.000000,1.000000 65.000000,1.000000 97.000000,1.000000 
	C97.000000,33.000000 97.000000,65.000000 97.000000,97.000000 
	C85.500000,97.000000 74.000000,97.000000 62.000000,97.000000 
M72.971931,82.389297 
	C73.007370,81.964966 73.042816,81.540627 73.946732,81.012108 
	C76.679413,80.380051 81.080742,83.018562 81.030205,77.067673 
	C80.894035,61.033730 80.907127,44.998524 80.745834,28.286297 
	C80.166908,27.802193 79.551659,27.355118 79.014626,26.828308 
	C73.011879,20.939894 67.021194,15.039178 60.094128,9.014678 
	C49.937843,9.009844 39.779778,9.111108 29.626284,8.940439 
	C26.245838,8.883618 24.552359,9.824758 24.973257,13.434858 
	C25.106554,14.578167 24.922476,15.758478 24.248970,16.990723 
	C23.828081,17.049265 23.407194,17.107809 22.325424,17.031950 
	C21.880337,17.076807 21.435251,17.121664 20.164646,17.027771 
	C19.110926,18.146271 17.147547,19.257122 17.138067,20.384403 
	C16.955988,42.041534 16.946909,63.701118 17.151100,85.357849 
	C17.162630,86.580780 19.300724,88.822403 20.473919,88.839066 
	C36.797928,89.070847 53.126331,88.976067 69.453529,89.016685 
	C72.318748,89.023819 73.415733,87.787407 72.967979,84.348892 
	C72.923187,83.903793 72.878403,83.458694 72.971931,82.389297 
z"/>
<path fill="#50E6FF" opacity="1.000000" stroke="none" 
	d="
M24.883638,16.921856 
	C24.922476,15.758478 25.106554,14.578167 24.973257,13.434858 
	C24.552359,9.824758 26.245838,8.883618 29.626284,8.940439 
	C39.779778,9.111108 49.937843,9.009844 60.556564,9.536535 
	C61.011402,14.557012 61.068199,19.056946 60.976311,23.553843 
	C60.899616,27.307016 62.567455,29.091446 66.365936,29.021490 
	C71.196335,28.932528 76.029182,28.976921 80.860977,28.963818 
	C80.907127,44.998524 80.894035,61.033730 81.030205,77.067673 
	C81.080742,83.018562 76.679413,80.380051 73.042130,81.025497 
	C58.817093,81.025673 45.496639,81.021202 32.176228,80.995552 
	C25.608608,80.982910 25.020185,80.396042 25.003798,73.863686 
	C24.956181,54.883095 24.922676,35.902470 24.883638,16.921856 
M67.464653,58.779099 
	C67.781357,58.613354 67.904411,58.355255 67.936012,57.150177 
	C67.111191,56.417107 66.340546,55.140259 65.451500,55.051670 
	C62.646458,54.772167 59.797031,54.933598 56.964783,54.932484 
	C50.061401,54.929768 43.158020,54.931599 36.254639,54.931599 
	C36.072311,55.629093 35.889984,56.326588 35.707657,57.024082 
	C37.145996,57.657967 38.577095,58.819725 40.023853,58.839561 
	C49.016125,58.962849 58.011906,58.830101 67.464653,58.779099 
M67.464661,50.779118 
	C67.781364,50.613365 67.904419,50.355259 67.936020,49.150181 
	C67.111183,48.417110 66.340538,47.140266 65.451492,47.051674 
	C62.646450,46.772167 59.797028,46.933598 56.964779,46.932484 
	C50.061398,46.929768 43.158016,46.931599 36.254635,46.931599 
	C36.072308,47.629093 35.889984,48.326588 35.707657,49.024082 
	C37.145996,49.657970 38.577099,50.819729 40.023857,50.839565 
	C49.016129,50.962860 58.011906,50.830116 67.464661,50.779118 
M67.936020,41.150177 
	C67.111191,40.417110 66.340538,39.140274 65.451492,39.051682 
	C62.646450,38.772175 59.797028,38.933598 56.964779,38.932484 
	C50.061398,38.929768 43.158016,38.931599 36.254635,38.931599 
	C36.072308,39.629093 35.889980,40.326591 35.707657,41.024086 
	C37.145996,41.657970 38.577099,42.819736 40.023857,42.839573 
	C49.016129,42.962860 58.011906,42.830116 67.464661,42.779118 
	C67.781364,42.613365 67.904419,42.355259 67.936020,41.150177 
M39.927322,66.995621 
	C45.707706,66.992722 51.490788,67.076416 57.265656,66.896553 
	C58.165318,66.868530 59.027534,65.638229 59.907066,64.963882 
	C59.333042,64.330109 58.768307,63.154839 58.183582,63.144810 
	C50.867413,63.019299 43.548340,63.062572 36.230015,63.062572 
	C36.053207,63.581230 35.876400,64.099892 35.699589,64.618546 
	C36.807079,65.405365 37.914566,66.192177 39.927322,66.995621 
z"/>
<path fill="#199BE2" opacity="1.000000" stroke="none" 
	d="
M72.833488,85.009743 
	C73.415733,87.787407 72.318748,89.023819 69.453529,89.016685 
	C53.126331,88.976067 36.797928,89.070847 20.473919,88.839066 
	C19.300724,88.822403 17.162630,86.580780 17.151100,85.357849 
	C16.946909,63.701118 16.955988,42.041534 17.138067,20.384403 
	C17.147547,19.257122 19.110926,18.146271 20.579941,17.555027 
	C20.996933,37.058647 20.980400,56.035038 21.009535,75.011360 
	C21.020779,82.334526 23.629833,84.969986 30.885777,84.989594 
	C44.868263,85.027367 58.850910,85.006371 72.833488,85.009743 
z"/>
<path fill="#1894D7" opacity="1.000000" stroke="none" 
	d="
M72.900734,84.679321 
	C58.850910,85.006371 44.868263,85.027367 30.885777,84.989594 
	C23.629833,84.969986 21.020779,82.334526 21.009535,75.011360 
	C20.980400,56.035038 20.996933,37.058647 20.992699,17.624401 
	C21.435251,17.121664 21.880337,17.076807 22.659389,17.556980 
	C22.995640,37.035522 22.983200,55.989056 23.008461,74.942543 
	C23.016918,81.287155 24.678253,82.974991 30.936413,82.990425 
	C44.902081,83.024872 58.867870,83.008980 72.833618,83.013596 
	C72.878403,83.458694 72.923187,83.903793 72.900734,84.679321 
z"/>
<path fill="#168AC9" opacity="1.000000" stroke="none" 
	d="
M72.902771,82.701447 
	C58.867870,83.008980 44.902081,83.024872 30.936413,82.990425 
	C24.678253,82.974991 23.016918,81.287155 23.008461,74.942543 
	C22.983200,55.989056 22.995640,37.035522 22.989830,17.624180 
	C23.407194,17.107809 23.828081,17.049265 24.566303,16.956289 
	C24.922676,35.902470 24.956181,54.883095 25.003798,73.863686 
	C25.020185,80.396042 25.608608,80.982910 32.176228,80.995552 
	C45.496639,81.021202 58.817093,81.025673 72.607895,81.077591 
	C73.042816,81.540627 73.007370,81.964966 72.902771,82.701447 
z"/>
<path fill="#2D7ED5" opacity="1.000000" stroke="none" 
	d="
M80.803406,28.625057 
	C76.029182,28.976921 71.196335,28.932528 66.365936,29.021490 
	C62.567455,29.091446 60.899616,27.307016 60.976311,23.553843 
	C61.068199,19.056946 61.011402,14.557012 61.023129,9.600084 
	C67.021194,15.039178 73.011879,20.939894 79.014626,26.828308 
	C79.551659,27.355118 80.166908,27.802193 80.803406,28.625057 
z"/>
<path fill="#057093" opacity="1.000000" stroke="none" 
	d="
M67.006523,42.782303 
	C58.011906,42.830116 49.016129,42.962860 40.023857,42.839573 
	C38.577099,42.819736 37.145996,41.657970 35.707657,41.024086 
	C35.889980,40.326591 36.072308,39.629093 36.254635,38.931599 
	C43.158016,38.931599 50.061398,38.929768 56.964779,38.932484 
	C59.797028,38.933598 62.646450,38.772175 65.451492,39.051682 
	C66.340538,39.140274 67.111191,40.417110 67.725525,41.682938 
	C67.310844,42.373436 67.141342,42.562302 67.006523,42.782303 
z"/>
<path fill="#057093" opacity="1.000000" stroke="none" 
	d="
M67.006523,50.782299 
	C58.011906,50.830116 49.016129,50.962860 40.023857,50.839565 
	C38.577099,50.819729 37.145996,49.657970 35.707657,49.024082 
	C35.889984,48.326588 36.072308,47.629093 36.254635,46.931599 
	C43.158016,46.931599 50.061398,46.929768 56.964779,46.932484 
	C59.797028,46.933598 62.646450,46.772167 65.451492,47.051674 
	C66.340538,47.140266 67.111183,48.417110 67.725525,49.682941 
	C67.310844,50.373436 67.141342,50.562302 67.006523,50.782299 
z"/>
<path fill="#057093" opacity="1.000000" stroke="none" 
	d="
M67.006523,58.782280 
	C58.011906,58.830101 49.016125,58.962849 40.023853,58.839561 
	C38.577095,58.819725 37.145996,57.657967 35.707657,57.024082 
	C35.889984,56.326588 36.072311,55.629093 36.254639,54.931599 
	C43.158020,54.931599 50.061401,54.929768 56.964783,54.932484 
	C59.797031,54.933598 62.646458,54.772167 65.451500,55.051670 
	C66.340546,55.140259 67.111191,56.417107 67.725525,57.682941 
	C67.310867,58.373447 67.141357,58.562305 67.006523,58.782280 
z"/>
<path fill="#057093" opacity="1.000000" stroke="none" 
	d="
M39.474689,66.987305 
	C37.914566,66.192177 36.807079,65.405365 35.699589,64.618546 
	C35.876400,64.099892 36.053207,63.581230 36.230015,63.062572 
	C43.548340,63.062572 50.867413,63.019299 58.183582,63.144810 
	C58.768307,63.154839 59.333042,64.330109 59.907066,64.963882 
	C59.027534,65.638229 58.165318,66.868530 57.265656,66.896553 
	C51.490788,67.076416 45.707706,66.992722 39.474689,66.987305 
z"/>
<path fill="#0F80A1" opacity="1.000000" stroke="none" 
	d="
M67.235596,42.780708 
	C67.141342,42.562302 67.310844,42.373436 67.674431,42.110252 
	C67.904419,42.355259 67.781364,42.613365 67.235596,42.780708 
z"/>
<path fill="#0F80A1" opacity="1.000000" stroke="none" 
	d="
M67.235596,50.780708 
	C67.141342,50.562302 67.310844,50.373436 67.674431,50.110252 
	C67.904419,50.355259 67.781364,50.613365 67.235596,50.780708 
z"/>
<path fill="#0F80A1" opacity="1.000000" stroke="none" 
	d="
M67.235588,58.780689 
	C67.141357,58.562305 67.310867,58.373447 67.674423,58.110252 
	C67.904411,58.355255 67.781357,58.613354 67.235588,58.780689 
z"/>
</svg>